<mxfile host="app.diagrams.net" modified="2021-11-18T12:45:02.998Z" agent="5.0 (Macintosh; Intel Mac OS X 10_15_7) AppleWebKit/605.1.15 (KHTML, like Gecko) Version/15.0 Safari/605.1.15" etag="u1mA_ZpvgyUMYSqlUYVz" version="15.8.2" type="github">
  <diagram id="-I5JzT5Am3dPeQ7wuIuu" name="Page-1">
    <mxGraphModel dx="1649" dy="612" grid="1" gridSize="10" guides="1" tooltips="1" connect="1" arrows="1" fold="1" page="1" pageScale="1" pageWidth="850" pageHeight="1100" math="0" shadow="0">
      <root>
        <mxCell id="0" />
        <mxCell id="1" parent="0" />
        <mxCell id="3dYIIpt0eVYWInigi38m-3" value="&lt;b&gt;AWS Organizations&lt;/b&gt;" style="points=[[0,0],[0.25,0],[0.5,0],[0.75,0],[1,0],[1,0.25],[1,0.5],[1,0.75],[1,1],[0.75,1],[0.5,1],[0.25,1],[0,1],[0,0.75],[0,0.5],[0,0.25]];outlineConnect=0;gradientColor=none;html=1;whiteSpace=wrap;fontSize=12;fontStyle=0;shape=mxgraph.aws4.group;grIcon=mxgraph.aws4.group_aws_cloud_alt;strokeColor=#232F3E;fillColor=none;verticalAlign=top;align=left;spacingLeft=30;fontColor=#232F3E;dashed=0;" vertex="1" parent="1">
          <mxGeometry x="-150" y="30" width="1390" height="1250" as="geometry" />
        </mxCell>
        <mxCell id="3dYIIpt0eVYWInigi38m-7" value="&lt;span style=&quot;color: rgb(26 , 26 , 26) ; font-size: 13px&quot;&gt;&lt;b&gt;AWS Control Tower Management Account&lt;/b&gt;&lt;/span&gt;" style="points=[[0,0],[0.25,0],[0.5,0],[0.75,0],[1,0],[1,0.25],[1,0.5],[1,0.75],[1,1],[0.75,1],[0.5,1],[0.25,1],[0,1],[0,0.75],[0,0.5],[0,0.25]];outlineConnect=0;gradientColor=none;html=1;whiteSpace=wrap;fontSize=12;fontStyle=0;shape=mxgraph.aws4.group;grIcon=mxgraph.aws4.group_aws_cloud;strokeColor=#232F3E;fillColor=none;verticalAlign=top;align=left;spacingLeft=30;fontColor=#232F3E;dashed=0;strokeWidth=2;" vertex="1" parent="1">
          <mxGeometry x="-110" y="60" width="490" height="260" as="geometry" />
        </mxCell>
        <mxCell id="3dYIIpt0eVYWInigi38m-8" value="Region" style="points=[[0,0],[0.25,0],[0.5,0],[0.75,0],[1,0],[1,0.25],[1,0.5],[1,0.75],[1,1],[0.75,1],[0.5,1],[0.25,1],[0,1],[0,0.75],[0,0.5],[0,0.25]];outlineConnect=0;gradientColor=none;html=1;whiteSpace=wrap;fontSize=12;fontStyle=0;shape=mxgraph.aws4.group;grIcon=mxgraph.aws4.group_region;strokeColor=#147EBA;fillColor=none;verticalAlign=top;align=left;spacingLeft=30;fontColor=#147EBA;strokeWidth=1;" vertex="1" parent="1">
          <mxGeometry x="-100" y="90" width="440" height="210" as="geometry" />
        </mxCell>
        <mxCell id="3dYIIpt0eVYWInigi38m-9" value="" style="sketch=0;points=[[0,0,0],[0.25,0,0],[0.5,0,0],[0.75,0,0],[1,0,0],[0,1,0],[0.25,1,0],[0.5,1,0],[0.75,1,0],[1,1,0],[0,0.25,0],[0,0.5,0],[0,0.75,0],[1,0.25,0],[1,0.5,0],[1,0.75,0]];points=[[0,0,0],[0.25,0,0],[0.5,0,0],[0.75,0,0],[1,0,0],[0,1,0],[0.25,1,0],[0.5,1,0],[0.75,1,0],[1,1,0],[0,0.25,0],[0,0.5,0],[0,0.75,0],[1,0.25,0],[1,0.5,0],[1,0.75,0]];outlineConnect=0;fontColor=#232F3E;gradientColor=#F34482;gradientDirection=north;fillColor=#BC1356;strokeColor=#ffffff;dashed=0;verticalLabelPosition=bottom;verticalAlign=top;align=center;html=1;fontSize=12;fontStyle=0;aspect=fixed;shape=mxgraph.aws4.resourceIcon;resIcon=mxgraph.aws4.control_tower;" vertex="1" parent="1">
          <mxGeometry x="-80" y="210" width="50" height="50" as="geometry" />
        </mxCell>
        <mxCell id="3dYIIpt0eVYWInigi38m-10" value="AWS Control Tower&lt;br&gt;&amp;nbsp;with Account Factory" style="text;html=1;resizable=0;autosize=1;align=center;verticalAlign=middle;points=[];fillColor=none;strokeColor=none;rounded=0;fontSize=13;fontColor=#1A1A1A;" vertex="1" parent="1">
          <mxGeometry x="-80" y="150" width="140" height="40" as="geometry" />
        </mxCell>
        <mxCell id="3dYIIpt0eVYWInigi38m-11" value="" style="sketch=0;points=[[0,0,0],[0.25,0,0],[0.5,0,0],[0.75,0,0],[1,0,0],[0,1,0],[0.25,1,0],[0.5,1,0],[0.75,1,0],[1,1,0],[0,0.25,0],[0,0.5,0],[0,0.75,0],[1,0.25,0],[1,0.5,0],[1,0.75,0]];outlineConnect=0;fontColor=#232F3E;gradientColor=#F78E04;gradientDirection=north;fillColor=#D05C17;strokeColor=#ffffff;dashed=0;verticalLabelPosition=bottom;verticalAlign=top;align=center;html=1;fontSize=12;fontStyle=0;aspect=fixed;shape=mxgraph.aws4.resourceIcon;resIcon=mxgraph.aws4.lambda;" vertex="1" parent="1">
          <mxGeometry x="50" y="210" width="50" height="50" as="geometry" />
        </mxCell>
        <mxCell id="3dYIIpt0eVYWInigi38m-12" value="" style="edgeStyle=orthogonalEdgeStyle;html=1;endArrow=block;elbow=vertical;startArrow=block;startFill=1;endFill=1;strokeColor=#1A1A1A;rounded=0;fontSize=13;fontColor=#1A1A1A;" edge="1" parent="1">
          <mxGeometry width="100" relative="1" as="geometry">
            <mxPoint x="-30" y="234.5" as="sourcePoint" />
            <mxPoint x="50" y="234.5" as="targetPoint" />
          </mxGeometry>
        </mxCell>
        <mxCell id="3dYIIpt0eVYWInigi38m-14" value="Control Tower&amp;nbsp;&lt;br&gt;Account Creation&amp;nbsp;" style="text;html=1;resizable=0;autosize=1;align=center;verticalAlign=middle;points=[];fillColor=none;strokeColor=none;rounded=0;fontSize=13;fontColor=#1A1A1A;" vertex="1" parent="1">
          <mxGeometry x="-50" y="260" width="120" height="40" as="geometry" />
        </mxCell>
        <mxCell id="3dYIIpt0eVYWInigi38m-15" value="" style="sketch=0;points=[[0,0,0],[0.25,0,0],[0.5,0,0],[0.75,0,0],[1,0,0],[0,1,0],[0.25,1,0],[0.5,1,0],[0.75,1,0],[1,1,0],[0,0.25,0],[0,0.5,0],[0,0.75,0],[1,0.25,0],[1,0.5,0],[1,0.75,0]];outlineConnect=0;fontColor=#232F3E;gradientColor=#F54749;gradientDirection=north;fillColor=#C7131F;strokeColor=#ffffff;dashed=0;verticalLabelPosition=bottom;verticalAlign=top;align=center;html=1;fontSize=12;fontStyle=0;aspect=fixed;shape=mxgraph.aws4.resourceIcon;resIcon=mxgraph.aws4.resource_access_manager;" vertex="1" parent="1">
          <mxGeometry x="180" y="210" width="50" height="50" as="geometry" />
        </mxCell>
        <mxCell id="3dYIIpt0eVYWInigi38m-16" value="" style="sketch=0;points=[[0,0,0],[0.25,0,0],[0.5,0,0],[0.75,0,0],[1,0,0],[0,1,0],[0.25,1,0],[0.5,1,0],[0.75,1,0],[1,1,0],[0,0.25,0],[0,0.5,0],[0,0.75,0],[1,0.25,0],[1,0.5,0],[1,0.75,0]];points=[[0,0,0],[0.25,0,0],[0.5,0,0],[0.75,0,0],[1,0,0],[0,1,0],[0.25,1,0],[0.5,1,0],[0.75,1,0],[1,1,0],[0,0.25,0],[0,0.5,0],[0,0.75,0],[1,0.25,0],[1,0.5,0],[1,0.75,0]];outlineConnect=0;fontColor=#232F3E;gradientColor=#F34482;gradientDirection=north;fillColor=#BC1356;strokeColor=#ffffff;dashed=0;verticalLabelPosition=bottom;verticalAlign=top;align=center;html=1;fontSize=12;fontStyle=0;aspect=fixed;shape=mxgraph.aws4.resourceIcon;resIcon=mxgraph.aws4.service_catalog;" vertex="1" parent="1">
          <mxGeometry x="267.5" y="210" width="50" height="50" as="geometry" />
        </mxCell>
        <mxCell id="3dYIIpt0eVYWInigi38m-17" value="RAM" style="text;html=1;resizable=0;autosize=1;align=center;verticalAlign=middle;points=[];fillColor=none;strokeColor=none;rounded=0;fontSize=13;fontColor=#1A1A1A;" vertex="1" parent="1">
          <mxGeometry x="155" y="270" width="40" height="20" as="geometry" />
        </mxCell>
        <mxCell id="3dYIIpt0eVYWInigi38m-18" value="AWS Service&amp;nbsp;&lt;br&gt;Catalog" style="text;html=1;resizable=0;autosize=1;align=center;verticalAlign=middle;points=[];fillColor=none;strokeColor=none;rounded=0;fontSize=13;fontColor=#1A1A1A;" vertex="1" parent="1">
          <mxGeometry x="240" y="260" width="100" height="40" as="geometry" />
        </mxCell>
        <mxCell id="3dYIIpt0eVYWInigi38m-19" value="Service Catalog &lt;br&gt;portfolio Sharing" style="text;html=1;resizable=0;autosize=1;align=center;verticalAlign=middle;points=[];fillColor=none;strokeColor=none;rounded=0;fontSize=13;fontColor=#1A1A1A;" vertex="1" parent="1">
          <mxGeometry x="185" y="160.5" width="110" height="40" as="geometry" />
        </mxCell>
        <mxCell id="3dYIIpt0eVYWInigi38m-20" value="&lt;b&gt;Core OU&lt;/b&gt;" style="points=[[0,0],[0.25,0],[0.5,0],[0.75,0],[1,0],[1,0.25],[1,0.5],[1,0.75],[1,1],[0.75,1],[0.5,1],[0.25,1],[0,1],[0,0.75],[0,0.5],[0,0.25]];outlineConnect=0;gradientColor=none;html=1;whiteSpace=wrap;fontSize=12;fontStyle=0;shape=mxgraph.aws4.group;grIcon=mxgraph.aws4.group_aws_cloud;strokeColor=#232F3E;fillColor=none;verticalAlign=top;align=left;spacingLeft=30;fontColor=#232F3E;dashed=0;" vertex="1" parent="1">
          <mxGeometry x="425" y="80" width="215" height="240" as="geometry" />
        </mxCell>
        <mxCell id="3dYIIpt0eVYWInigi38m-23" value="&lt;font color=&quot;#1a1a1a&quot; style=&quot;font-size: 12px&quot;&gt;&lt;b&gt;Infrastructure OU&lt;/b&gt;&lt;/font&gt;" style="points=[[0,0],[0.25,0],[0.5,0],[0.75,0],[1,0],[1,0.25],[1,0.5],[1,0.75],[1,1],[0.75,1],[0.5,1],[0.25,1],[0,1],[0,0.75],[0,0.5],[0,0.25]];outlineConnect=0;gradientColor=none;html=1;whiteSpace=wrap;fontSize=12;fontStyle=0;shape=mxgraph.aws4.group;grIcon=mxgraph.aws4.group_aws_cloud;strokeColor=#232F3E;fillColor=none;verticalAlign=top;align=left;spacingLeft=30;fontColor=#232F3E;dashed=0;strokeWidth=2;" vertex="1" parent="1">
          <mxGeometry x="-120" y="350" width="690" height="520" as="geometry" />
        </mxCell>
        <mxCell id="3dYIIpt0eVYWInigi38m-24" value="&lt;font color=&quot;#1a1a1a&quot; size=&quot;1&quot;&gt;&lt;span&gt;&lt;span style=&quot;font-size: 12px&quot;&gt;&lt;b&gt;Networking Account&amp;nbsp;&lt;/b&gt;&lt;/span&gt;&lt;/span&gt;&lt;/font&gt;" style="points=[[0,0],[0.25,0],[0.5,0],[0.75,0],[1,0],[1,0.25],[1,0.5],[1,0.75],[1,1],[0.75,1],[0.5,1],[0.25,1],[0,1],[0,0.75],[0,0.5],[0,0.25]];outlineConnect=0;gradientColor=none;html=1;whiteSpace=wrap;fontSize=12;fontStyle=0;shape=mxgraph.aws4.group;grIcon=mxgraph.aws4.group_aws_cloud;strokeColor=#232F3E;fillColor=none;verticalAlign=top;align=left;spacingLeft=30;fontColor=#232F3E;dashed=0;strokeWidth=1;" vertex="1" parent="1">
          <mxGeometry x="-100" y="380" width="640" height="470" as="geometry" />
        </mxCell>
        <mxCell id="3dYIIpt0eVYWInigi38m-25" value="Region" style="points=[[0,0],[0.25,0],[0.5,0],[0.75,0],[1,0],[1,0.25],[1,0.5],[1,0.75],[1,1],[0.75,1],[0.5,1],[0.25,1],[0,1],[0,0.75],[0,0.5],[0,0.25]];outlineConnect=0;gradientColor=none;html=1;whiteSpace=wrap;fontSize=12;fontStyle=0;shape=mxgraph.aws4.group;grIcon=mxgraph.aws4.group_region;strokeColor=#147EBA;fillColor=none;verticalAlign=top;align=left;spacingLeft=30;fontColor=#147EBA;strokeWidth=1;" vertex="1" parent="1">
          <mxGeometry x="-80" y="410" width="600" height="410" as="geometry" />
        </mxCell>
        <mxCell id="3dYIIpt0eVYWInigi38m-26" value="&lt;b&gt;Business Unit AU A&lt;/b&gt;" style="points=[[0,0],[0.25,0],[0.5,0],[0.75,0],[1,0],[1,0.25],[1,0.5],[1,0.75],[1,1],[0.75,1],[0.5,1],[0.25,1],[0,1],[0,0.75],[0,0.5],[0,0.25]];outlineConnect=0;gradientColor=none;html=1;whiteSpace=wrap;fontSize=12;fontStyle=0;shape=mxgraph.aws4.group;grIcon=mxgraph.aws4.group_aws_cloud_alt;strokeColor=#232F3E;fillColor=none;verticalAlign=top;align=left;spacingLeft=30;fontColor=#232F3E;dashed=0;" vertex="1" parent="1">
          <mxGeometry x="690" y="80" width="460" height="350" as="geometry" />
        </mxCell>
        <mxCell id="3dYIIpt0eVYWInigi38m-27" value="&lt;b&gt;Businss Unit AU B&lt;/b&gt;" style="points=[[0,0],[0.25,0],[0.5,0],[0.75,0],[1,0],[1,0.25],[1,0.5],[1,0.75],[1,1],[0.75,1],[0.5,1],[0.25,1],[0,1],[0,0.75],[0,0.5],[0,0.25]];outlineConnect=0;gradientColor=none;html=1;whiteSpace=wrap;fontSize=12;fontStyle=0;shape=mxgraph.aws4.group;grIcon=mxgraph.aws4.group_aws_cloud_alt;strokeColor=#232F3E;fillColor=none;verticalAlign=top;align=left;spacingLeft=30;fontColor=#232F3E;dashed=0;" vertex="1" parent="1">
          <mxGeometry x="650" y="490" width="480" height="360" as="geometry" />
        </mxCell>
        <mxCell id="3dYIIpt0eVYWInigi38m-28" value="&lt;b style=&quot;color: rgb(26 , 26 , 26)&quot;&gt;BU Account A&lt;/b&gt;" style="points=[[0,0],[0.25,0],[0.5,0],[0.75,0],[1,0],[1,0.25],[1,0.5],[1,0.75],[1,1],[0.75,1],[0.5,1],[0.25,1],[0,1],[0,0.75],[0,0.5],[0,0.25]];outlineConnect=0;gradientColor=none;html=1;whiteSpace=wrap;fontSize=12;fontStyle=0;shape=mxgraph.aws4.group;grIcon=mxgraph.aws4.group_aws_cloud;strokeColor=#232F3E;fillColor=none;verticalAlign=top;align=left;spacingLeft=30;fontColor=#232F3E;dashed=0;strokeWidth=2;" vertex="1" parent="1">
          <mxGeometry x="720" y="110" width="410" height="290" as="geometry" />
        </mxCell>
        <mxCell id="3dYIIpt0eVYWInigi38m-29" value="&lt;font color=&quot;#1a1a1a&quot; size=&quot;2&quot;&gt;&lt;span&gt;&lt;b&gt;BU Account B&lt;/b&gt;&lt;/span&gt;&lt;/font&gt;" style="points=[[0,0],[0.25,0],[0.5,0],[0.75,0],[1,0],[1,0.25],[1,0.5],[1,0.75],[1,1],[0.75,1],[0.5,1],[0.25,1],[0,1],[0,0.75],[0,0.5],[0,0.25]];outlineConnect=0;gradientColor=none;html=1;whiteSpace=wrap;fontSize=12;fontStyle=0;shape=mxgraph.aws4.group;grIcon=mxgraph.aws4.group_aws_cloud;strokeColor=#232F3E;fillColor=none;verticalAlign=top;align=left;spacingLeft=30;fontColor=#232F3E;dashed=0;strokeWidth=2;" vertex="1" parent="1">
          <mxGeometry x="670" y="520" width="440" height="310" as="geometry" />
        </mxCell>
        <mxCell id="3dYIIpt0eVYWInigi38m-30" value="VPC" style="points=[[0,0],[0.25,0],[0.5,0],[0.75,0],[1,0],[1,0.25],[1,0.5],[1,0.75],[1,1],[0.75,1],[0.5,1],[0.25,1],[0,1],[0,0.75],[0,0.5],[0,0.25]];outlineConnect=0;gradientColor=none;html=1;whiteSpace=wrap;fontSize=12;fontStyle=0;shape=mxgraph.aws4.group;grIcon=mxgraph.aws4.group_vpc;strokeColor=#248814;fillColor=none;verticalAlign=top;align=left;spacingLeft=30;fontColor=#AAB7B8;dashed=0;strokeWidth=1;" vertex="1" parent="1">
          <mxGeometry x="770" y="240" width="310" height="110" as="geometry" />
        </mxCell>
        <mxCell id="3dYIIpt0eVYWInigi38m-108" style="edgeStyle=orthogonalEdgeStyle;shape=link;rounded=0;orthogonalLoop=1;jettySize=auto;html=1;exitX=1;exitY=1;exitDx=0;exitDy=0;fontSize=12;fontColor=#1A1A1A;" edge="1" parent="1" source="3dYIIpt0eVYWInigi38m-32">
          <mxGeometry relative="1" as="geometry">
            <mxPoint x="285" y="590" as="targetPoint" />
          </mxGeometry>
        </mxCell>
        <mxCell id="3dYIIpt0eVYWInigi38m-32" value="VPC" style="points=[[0,0],[0.25,0],[0.5,0],[0.75,0],[1,0],[1,0.25],[1,0.5],[1,0.75],[1,1],[0.75,1],[0.5,1],[0.25,1],[0,1],[0,0.75],[0,0.5],[0,0.25]];outlineConnect=0;gradientColor=none;html=1;whiteSpace=wrap;fontSize=12;fontStyle=0;shape=mxgraph.aws4.group;grIcon=mxgraph.aws4.group_vpc;strokeColor=#248814;fillColor=none;verticalAlign=top;align=left;spacingLeft=30;fontColor=#AAB7B8;dashed=0;flipH=1;" vertex="1" parent="1">
          <mxGeometry x="-15" y="430" width="285" height="160" as="geometry" />
        </mxCell>
        <mxCell id="3dYIIpt0eVYWInigi38m-33" value="&lt;font color=&quot;#4d4d4d&quot;&gt;VPC (Egress)&lt;/font&gt;" style="points=[[0,0],[0.25,0],[0.5,0],[0.75,0],[1,0],[1,0.25],[1,0.5],[1,0.75],[1,1],[0.75,1],[0.5,1],[0.25,1],[0,1],[0,0.75],[0,0.5],[0,0.25]];outlineConnect=0;gradientColor=none;html=1;whiteSpace=wrap;fontSize=12;fontStyle=0;shape=mxgraph.aws4.group;grIcon=mxgraph.aws4.group_vpc;strokeColor=#248814;fillColor=none;verticalAlign=top;align=left;spacingLeft=30;fontColor=#AAB7B8;dashed=0;" vertex="1" parent="1">
          <mxGeometry x="180" y="670" width="230" height="120" as="geometry" />
        </mxCell>
        <mxCell id="3dYIIpt0eVYWInigi38m-34" value="&lt;font color=&quot;#4d4d4d&quot;&gt;VPC (Ingress)&amp;nbsp;&lt;/font&gt;" style="points=[[0,0],[0.25,0],[0.5,0],[0.75,0],[1,0],[1,0.25],[1,0.5],[1,0.75],[1,1],[0.75,1],[0.5,1],[0.25,1],[0,1],[0,0.75],[0,0.5],[0,0.25]];outlineConnect=0;gradientColor=none;html=1;whiteSpace=wrap;fontSize=12;fontStyle=0;shape=mxgraph.aws4.group;grIcon=mxgraph.aws4.group_vpc;strokeColor=#248814;fillColor=none;verticalAlign=top;align=left;spacingLeft=30;fontColor=#AAB7B8;dashed=0;" vertex="1" parent="1">
          <mxGeometry x="-60" y="670" width="220" height="120" as="geometry" />
        </mxCell>
        <mxCell id="3dYIIpt0eVYWInigi38m-36" value="Private subnet" style="points=[[0,0],[0.25,0],[0.5,0],[0.75,0],[1,0],[1,0.25],[1,0.5],[1,0.75],[1,1],[0.75,1],[0.5,1],[0.25,1],[0,1],[0,0.75],[0,0.5],[0,0.25]];outlineConnect=0;gradientColor=none;html=1;whiteSpace=wrap;fontSize=12;fontStyle=0;shape=mxgraph.aws4.group;grIcon=mxgraph.aws4.group_security_group;grStroke=0;strokeColor=#147EBA;fillColor=#E6F2F8;verticalAlign=top;align=left;spacingLeft=30;fontColor=#147EBA;dashed=0;" vertex="1" parent="1">
          <mxGeometry x="790" y="270" width="130" height="70" as="geometry" />
        </mxCell>
        <mxCell id="3dYIIpt0eVYWInigi38m-37" value="Private subnet" style="points=[[0,0],[0.25,0],[0.5,0],[0.75,0],[1,0],[1,0.25],[1,0.5],[1,0.75],[1,1],[0.75,1],[0.5,1],[0.25,1],[0,1],[0,0.75],[0,0.5],[0,0.25]];outlineConnect=0;gradientColor=none;html=1;whiteSpace=wrap;fontSize=12;fontStyle=0;shape=mxgraph.aws4.group;grIcon=mxgraph.aws4.group_security_group;grStroke=0;strokeColor=#147EBA;fillColor=#E6F2F8;verticalAlign=top;align=left;spacingLeft=30;fontColor=#147EBA;dashed=0;" vertex="1" parent="1">
          <mxGeometry x="940" y="270" width="130" height="70" as="geometry" />
        </mxCell>
        <mxCell id="3dYIIpt0eVYWInigi38m-39" value="&lt;font color=&quot;#4d4d4d&quot;&gt;VPC&lt;/font&gt;" style="points=[[0,0],[0.25,0],[0.5,0],[0.75,0],[1,0],[1,0.25],[1,0.5],[1,0.75],[1,1],[0.75,1],[0.5,1],[0.25,1],[0,1],[0,0.75],[0,0.5],[0,0.25]];outlineConnect=0;gradientColor=none;html=1;whiteSpace=wrap;fontSize=12;fontStyle=0;shape=mxgraph.aws4.group;grIcon=mxgraph.aws4.group_vpc;strokeColor=#248814;fillColor=none;verticalAlign=top;align=left;spacingLeft=30;fontColor=#AAB7B8;dashed=0;" vertex="1" parent="1">
          <mxGeometry x="740" y="650" width="320" height="120" as="geometry" />
        </mxCell>
        <mxCell id="3dYIIpt0eVYWInigi38m-40" value="Private subnet" style="points=[[0,0],[0.25,0],[0.5,0],[0.75,0],[1,0],[1,0.25],[1,0.5],[1,0.75],[1,1],[0.75,1],[0.5,1],[0.25,1],[0,1],[0,0.75],[0,0.5],[0,0.25]];outlineConnect=0;gradientColor=none;html=1;whiteSpace=wrap;fontSize=12;fontStyle=0;shape=mxgraph.aws4.group;grIcon=mxgraph.aws4.group_security_group;grStroke=0;strokeColor=#147EBA;fillColor=#E6F2F8;verticalAlign=top;align=left;spacingLeft=30;fontColor=#147EBA;dashed=0;" vertex="1" parent="1">
          <mxGeometry x="765" y="670" width="130" height="80" as="geometry" />
        </mxCell>
        <mxCell id="3dYIIpt0eVYWInigi38m-41" value="Private subnet" style="points=[[0,0],[0.25,0],[0.5,0],[0.75,0],[1,0],[1,0.25],[1,0.5],[1,0.75],[1,1],[0.75,1],[0.5,1],[0.25,1],[0,1],[0,0.75],[0,0.5],[0,0.25]];outlineConnect=0;gradientColor=none;html=1;whiteSpace=wrap;fontSize=12;fontStyle=0;shape=mxgraph.aws4.group;grIcon=mxgraph.aws4.group_security_group;grStroke=0;strokeColor=#147EBA;fillColor=#E6F2F8;verticalAlign=top;align=left;spacingLeft=30;fontColor=#147EBA;dashed=0;" vertex="1" parent="1">
          <mxGeometry x="920" y="670" width="130" height="80" as="geometry" />
        </mxCell>
        <mxCell id="3dYIIpt0eVYWInigi38m-43" value="Public subnet" style="points=[[0,0],[0.25,0],[0.5,0],[0.75,0],[1,0],[1,0.25],[1,0.5],[1,0.75],[1,1],[0.75,1],[0.5,1],[0.25,1],[0,1],[0,0.75],[0,0.5],[0,0.25]];outlineConnect=0;gradientColor=none;html=1;whiteSpace=wrap;fontSize=12;fontStyle=0;shape=mxgraph.aws4.group;grIcon=mxgraph.aws4.group_security_group;grStroke=0;strokeColor=#248814;fillColor=#E9F3E6;verticalAlign=top;align=left;spacingLeft=30;fontColor=#248814;dashed=0;" vertex="1" parent="1">
          <mxGeometry x="195" y="700" width="90" height="70" as="geometry" />
        </mxCell>
        <mxCell id="3dYIIpt0eVYWInigi38m-44" value="Private subnet" style="points=[[0,0],[0.25,0],[0.5,0],[0.75,0],[1,0],[1,0.25],[1,0.5],[1,0.75],[1,1],[0.75,1],[0.5,1],[0.25,1],[0,1],[0,0.75],[0,0.5],[0,0.25]];outlineConnect=0;gradientColor=none;html=1;whiteSpace=wrap;fontSize=12;fontStyle=0;shape=mxgraph.aws4.group;grIcon=mxgraph.aws4.group_security_group;grStroke=0;strokeColor=#147EBA;fillColor=#E6F2F8;verticalAlign=top;align=left;spacingLeft=30;fontColor=#147EBA;dashed=0;" vertex="1" parent="1">
          <mxGeometry x="60" y="700" width="90" height="70" as="geometry" />
        </mxCell>
        <mxCell id="3dYIIpt0eVYWInigi38m-45" value="Private subnet" style="points=[[0,0],[0.25,0],[0.5,0],[0.75,0],[1,0],[1,0.25],[1,0.5],[1,0.75],[1,1],[0.75,1],[0.5,1],[0.25,1],[0,1],[0,0.75],[0,0.5],[0,0.25]];outlineConnect=0;gradientColor=none;html=1;whiteSpace=wrap;fontSize=12;fontStyle=0;shape=mxgraph.aws4.group;grIcon=mxgraph.aws4.group_security_group;grStroke=0;strokeColor=#147EBA;fillColor=#E6F2F8;verticalAlign=top;align=left;spacingLeft=30;fontColor=#147EBA;dashed=0;" vertex="1" parent="1">
          <mxGeometry x="300" y="695" width="90" height="70" as="geometry" />
        </mxCell>
        <mxCell id="3dYIIpt0eVYWInigi38m-46" value="Public subnet" style="points=[[0,0],[0.25,0],[0.5,0],[0.75,0],[1,0],[1,0.25],[1,0.5],[1,0.75],[1,1],[0.75,1],[0.5,1],[0.25,1],[0,1],[0,0.75],[0,0.5],[0,0.25]];outlineConnect=0;gradientColor=none;html=1;whiteSpace=wrap;fontSize=12;fontStyle=0;shape=mxgraph.aws4.group;grIcon=mxgraph.aws4.group_security_group;grStroke=0;strokeColor=#248814;fillColor=#E9F3E6;verticalAlign=top;align=left;spacingLeft=30;fontColor=#248814;dashed=0;" vertex="1" parent="1">
          <mxGeometry x="-40" y="700" width="90" height="70" as="geometry" />
        </mxCell>
        <mxCell id="3dYIIpt0eVYWInigi38m-47" value="" style="sketch=0;points=[[0,0,0],[0.25,0,0],[0.5,0,0],[0.75,0,0],[1,0,0],[0,1,0],[0.25,1,0],[0.5,1,0],[0.75,1,0],[1,1,0],[0,0.25,0],[0,0.5,0],[0,0.75,0],[1,0.25,0],[1,0.5,0],[1,0.75,0]];points=[[0,0,0],[0.25,0,0],[0.5,0,0],[0.75,0,0],[1,0,0],[0,1,0],[0.25,1,0],[0.5,1,0],[0.75,1,0],[1,1,0],[0,0.25,0],[0,0.5,0],[0,0.75,0],[1,0.25,0],[1,0.5,0],[1,0.75,0]];outlineConnect=0;fontColor=#232F3E;gradientColor=#F34482;gradientDirection=north;fillColor=#BC1356;strokeColor=#ffffff;dashed=0;verticalLabelPosition=bottom;verticalAlign=top;align=center;html=1;fontSize=12;fontStyle=0;aspect=fixed;shape=mxgraph.aws4.resourceIcon;resIcon=mxgraph.aws4.service_catalog;" vertex="1" parent="1">
          <mxGeometry x="950" y="160" width="50" height="50" as="geometry" />
        </mxCell>
        <mxCell id="3dYIIpt0eVYWInigi38m-48" value="" style="sketch=0;points=[[0,0,0],[0.25,0,0],[0.5,0,0],[0.75,0,0],[1,0,0],[0,1,0],[0.25,1,0],[0.5,1,0],[0.75,1,0],[1,1,0],[0,0.25,0],[0,0.5,0],[0,0.75,0],[1,0.25,0],[1,0.5,0],[1,0.75,0]];points=[[0,0,0],[0.25,0,0],[0.5,0,0],[0.75,0,0],[1,0,0],[0,1,0],[0.25,1,0],[0.5,1,0],[0.75,1,0],[1,1,0],[0,0.25,0],[0,0.5,0],[0,0.75,0],[1,0.25,0],[1,0.5,0],[1,0.75,0]];outlineConnect=0;fontColor=#232F3E;gradientColor=#F34482;gradientDirection=north;fillColor=#BC1356;strokeColor=#ffffff;dashed=0;verticalLabelPosition=bottom;verticalAlign=top;align=center;html=1;fontSize=12;fontStyle=0;aspect=fixed;shape=mxgraph.aws4.resourceIcon;resIcon=mxgraph.aws4.service_catalog;" vertex="1" parent="1">
          <mxGeometry x="940" y="570" width="50" height="50" as="geometry" />
        </mxCell>
        <mxCell id="3dYIIpt0eVYWInigi38m-59" value="" style="edgeStyle=orthogonalEdgeStyle;html=1;endArrow=block;elbow=vertical;startArrow=block;startFill=1;endFill=1;strokeColor=#1A1A1A;rounded=0;fontSize=13;fontColor=#1A1A1A;endSize=6;exitX=0.5;exitY=0;exitDx=0;exitDy=0;exitPerimeter=0;" edge="1" parent="1" source="3dYIIpt0eVYWInigi38m-16" target="3dYIIpt0eVYWInigi38m-89">
          <mxGeometry width="100" relative="1" as="geometry">
            <mxPoint x="270" y="151" as="sourcePoint" />
            <mxPoint x="310" y="151" as="targetPoint" />
            <Array as="points" />
          </mxGeometry>
        </mxCell>
        <mxCell id="3dYIIpt0eVYWInigi38m-52" value="Private subnet" style="points=[[0,0],[0.25,0],[0.5,0],[0.75,0],[1,0],[1,0.25],[1,0.5],[1,0.75],[1,1],[0.75,1],[0.5,1],[0.25,1],[0,1],[0,0.75],[0,0.5],[0,0.25]];outlineConnect=0;gradientColor=none;html=1;whiteSpace=wrap;fontSize=12;fontStyle=0;shape=mxgraph.aws4.group;grIcon=mxgraph.aws4.group_security_group;grStroke=0;strokeColor=#147EBA;fillColor=#E6F2F8;verticalAlign=top;align=left;spacingLeft=30;fontColor=#147EBA;dashed=0;" vertex="1" parent="1">
          <mxGeometry y="462.5" width="100" height="95" as="geometry" />
        </mxCell>
        <mxCell id="3dYIIpt0eVYWInigi38m-54" value="Private subnet" style="points=[[0,0],[0.25,0],[0.5,0],[0.75,0],[1,0],[1,0.25],[1,0.5],[1,0.75],[1,1],[0.75,1],[0.5,1],[0.25,1],[0,1],[0,0.75],[0,0.5],[0,0.25]];outlineConnect=0;gradientColor=none;html=1;whiteSpace=wrap;fontSize=12;fontStyle=0;shape=mxgraph.aws4.group;grIcon=mxgraph.aws4.group_security_group;grStroke=0;strokeColor=#147EBA;fillColor=#E6F2F8;verticalAlign=top;align=left;spacingLeft=30;fontColor=#147EBA;dashed=0;" vertex="1" parent="1">
          <mxGeometry x="160" y="462.5" width="100" height="95" as="geometry" />
        </mxCell>
        <mxCell id="3dYIIpt0eVYWInigi38m-56" value="Firewall &lt;br&gt;Endpoint" style="text;html=1;resizable=0;autosize=1;align=center;verticalAlign=middle;points=[];fillColor=none;strokeColor=none;rounded=0;fontSize=12;fontColor=#1A1A1A;" vertex="1" parent="1">
          <mxGeometry x="20" y="557.5" width="60" height="30" as="geometry" />
        </mxCell>
        <mxCell id="3dYIIpt0eVYWInigi38m-57" value="TGW&lt;br&gt;ENI" style="text;html=1;resizable=0;autosize=1;align=center;verticalAlign=middle;points=[];fillColor=none;strokeColor=none;rounded=0;fontSize=12;fontColor=#1A1A1A;" vertex="1" parent="1">
          <mxGeometry x="185" y="560" width="40" height="30" as="geometry" />
        </mxCell>
        <mxCell id="3dYIIpt0eVYWInigi38m-61" value="" style="sketch=0;points=[[0,0,0],[0.25,0,0],[0.5,0,0],[0.75,0,0],[1,0,0],[0,1,0],[0.25,1,0],[0.5,1,0],[0.75,1,0],[1,1,0],[0,0.25,0],[0,0.5,0],[0,0.75,0],[1,0.25,0],[1,0.5,0],[1,0.75,0]];outlineConnect=0;fontColor=#232F3E;gradientColor=#F54749;gradientDirection=north;fillColor=#C7131F;strokeColor=#ffffff;dashed=0;verticalLabelPosition=bottom;verticalAlign=top;align=center;html=1;fontSize=12;fontStyle=0;aspect=fixed;shape=mxgraph.aws4.resourceIcon;resIcon=mxgraph.aws4.network_firewall;" vertex="1" parent="1">
          <mxGeometry x="-73" y="477" width="53" height="53" as="geometry" />
        </mxCell>
        <mxCell id="3dYIIpt0eVYWInigi38m-62" value="AWS &lt;br&gt;Network &lt;br&gt;Firewall" style="text;html=1;resizable=0;autosize=1;align=center;verticalAlign=middle;points=[];fillColor=none;strokeColor=none;rounded=0;fontSize=12;fontColor=#1A1A1A;" vertex="1" parent="1">
          <mxGeometry x="-73" y="530" width="60" height="50" as="geometry" />
        </mxCell>
        <mxCell id="3dYIIpt0eVYWInigi38m-63" value="" style="sketch=0;outlineConnect=0;fontColor=#232F3E;gradientColor=none;fillColor=#BF0816;strokeColor=none;dashed=0;verticalLabelPosition=bottom;verticalAlign=top;align=center;html=1;fontSize=12;fontStyle=0;aspect=fixed;pointerEvents=1;shape=mxgraph.aws4.network_firewall_endpoints;" vertex="1" parent="1">
          <mxGeometry x="35.5" y="517" width="44" height="44" as="geometry" />
        </mxCell>
        <mxCell id="3dYIIpt0eVYWInigi38m-64" value="" style="sketch=0;outlineConnect=0;fontColor=#232F3E;gradientColor=none;fillColor=#4D27AA;strokeColor=none;dashed=0;verticalLabelPosition=bottom;verticalAlign=top;align=center;html=1;fontSize=12;fontStyle=0;aspect=fixed;pointerEvents=1;shape=mxgraph.aws4.elastic_network_interface;" vertex="1" parent="1">
          <mxGeometry x="180" y="507.5" width="50" height="50" as="geometry" />
        </mxCell>
        <mxCell id="3dYIIpt0eVYWInigi38m-65" value="" style="sketch=0;points=[[0,0,0],[0.25,0,0],[0.5,0,0],[0.75,0,0],[1,0,0],[0,1,0],[0.25,1,0],[0.5,1,0],[0.75,1,0],[1,1,0],[0,0.25,0],[0,0.5,0],[0,0.75,0],[1,0.25,0],[1,0.5,0],[1,0.75,0]];outlineConnect=0;fontColor=#232F3E;gradientColor=#945DF2;gradientDirection=north;fillColor=#5A30B5;strokeColor=#ffffff;dashed=0;verticalLabelPosition=bottom;verticalAlign=top;align=center;html=1;fontSize=12;fontStyle=0;aspect=fixed;shape=mxgraph.aws4.resourceIcon;resIcon=mxgraph.aws4.transit_gateway;" vertex="1" parent="1">
          <mxGeometry x="420" y="470" width="50" height="50" as="geometry" />
        </mxCell>
        <mxCell id="3dYIIpt0eVYWInigi38m-66" value="" style="sketch=0;points=[[0,0,0],[0.25,0,0],[0.5,0,0],[0.75,0,0],[1,0,0],[0,1,0],[0.25,1,0],[0.5,1,0],[0.75,1,0],[1,1,0],[0,0.25,0],[0,0.5,0],[0,0.75,0],[1,0.25,0],[1,0.5,0],[1,0.75,0]];outlineConnect=0;fontColor=#232F3E;gradientColor=#945DF2;gradientDirection=north;fillColor=#5A30B5;strokeColor=#ffffff;dashed=0;verticalLabelPosition=bottom;verticalAlign=top;align=center;html=1;fontSize=12;fontStyle=0;aspect=fixed;shape=mxgraph.aws4.resourceIcon;resIcon=mxgraph.aws4.direct_connect;" vertex="1" parent="1">
          <mxGeometry x="480" y="940" width="40" height="40" as="geometry" />
        </mxCell>
        <mxCell id="3dYIIpt0eVYWInigi38m-67" value="" style="sketch=0;points=[[0,0,0],[0.25,0,0],[0.5,0,0],[0.75,0,0],[1,0,0],[0,1,0],[0.25,1,0],[0.5,1,0],[0.75,1,0],[1,1,0],[0,0.25,0],[0,0.5,0],[0,0.75,0],[1,0.25,0],[1,0.5,0],[1,0.75,0]];outlineConnect=0;fontColor=#232F3E;gradientColor=#945DF2;gradientDirection=north;fillColor=#5A30B5;strokeColor=#ffffff;dashed=0;verticalLabelPosition=bottom;verticalAlign=top;align=center;html=1;fontSize=12;fontStyle=0;aspect=fixed;shape=mxgraph.aws4.resourceIcon;resIcon=mxgraph.aws4.site_to_site_vpn;" vertex="1" parent="1">
          <mxGeometry x="410" y="940" width="40" height="40" as="geometry" />
        </mxCell>
        <mxCell id="3dYIIpt0eVYWInigi38m-68" value="&lt;font color=&quot;#1a1a1a&quot;&gt;&lt;b&gt;Corporate Data Center&lt;/b&gt;&lt;/font&gt;" style="sketch=0;outlineConnect=0;gradientColor=none;html=1;whiteSpace=wrap;fontSize=12;fontStyle=0;shape=mxgraph.aws4.group;grIcon=mxgraph.aws4.group_on_premise;strokeColor=#858B94;fillColor=none;verticalAlign=top;align=left;spacingLeft=30;fontColor=#858B94;dashed=0;" vertex="1" parent="1">
          <mxGeometry x="385" y="1060" width="165" height="170" as="geometry" />
        </mxCell>
        <mxCell id="3dYIIpt0eVYWInigi38m-69" value="" style="sketch=0;outlineConnect=0;fontColor=#232F3E;gradientColor=none;strokeColor=#232F3E;fillColor=#ffffff;dashed=0;verticalLabelPosition=bottom;verticalAlign=top;align=center;html=1;fontSize=12;fontStyle=0;aspect=fixed;shape=mxgraph.aws4.resourceIcon;resIcon=mxgraph.aws4.corporate_data_center;" vertex="1" parent="1">
          <mxGeometry x="390" y="1120" width="50" height="50" as="geometry" />
        </mxCell>
        <mxCell id="3dYIIpt0eVYWInigi38m-70" value="" style="sketch=0;outlineConnect=0;fontColor=#232F3E;gradientColor=none;strokeColor=#232F3E;fillColor=#ffffff;dashed=0;verticalLabelPosition=bottom;verticalAlign=top;align=center;html=1;fontSize=12;fontStyle=0;aspect=fixed;shape=mxgraph.aws4.resourceIcon;resIcon=mxgraph.aws4.corporate_data_center;" vertex="1" parent="1">
          <mxGeometry x="490" y="1120" width="50" height="50" as="geometry" />
        </mxCell>
        <mxCell id="3dYIIpt0eVYWInigi38m-71" value="&lt;font color=&quot;#1a1a1a&quot;&gt;AWS&amp;nbsp;&lt;br&gt;Transit &lt;br&gt;Gateway&lt;/font&gt;" style="text;html=1;resizable=0;autosize=1;align=center;verticalAlign=middle;points=[];fillColor=none;strokeColor=none;rounded=0;fontSize=12;fontColor=#4D4D4D;" vertex="1" parent="1">
          <mxGeometry x="440" y="420" width="60" height="50" as="geometry" />
        </mxCell>
        <mxCell id="3dYIIpt0eVYWInigi38m-72" value="" style="sketch=0;outlineConnect=0;fontColor=#232F3E;gradientColor=none;strokeColor=#232F3E;fillColor=#ffffff;dashed=0;verticalLabelPosition=bottom;verticalAlign=top;align=center;html=1;fontSize=12;fontStyle=0;aspect=fixed;shape=mxgraph.aws4.resourceIcon;resIcon=mxgraph.aws4.role;" vertex="1" parent="1">
          <mxGeometry x="780" y="561" width="59" height="59" as="geometry" />
        </mxCell>
        <mxCell id="3dYIIpt0eVYWInigi38m-73" value="End Users&lt;br&gt;" style="sketch=0;outlineConnect=0;fontColor=#232F3E;gradientColor=none;strokeColor=#232F3E;fillColor=#ffffff;dashed=0;verticalLabelPosition=bottom;verticalAlign=top;align=center;html=1;fontSize=12;fontStyle=0;aspect=fixed;shape=mxgraph.aws4.resourceIcon;resIcon=mxgraph.aws4.users;" vertex="1" parent="1">
          <mxGeometry x="1040" y="550" width="50" height="50" as="geometry" />
        </mxCell>
        <mxCell id="3dYIIpt0eVYWInigi38m-79" value="&lt;span style=&quot;color: rgb(26 , 26 , 26) ; font-size: 13px&quot;&gt;AWS Service&amp;nbsp;&lt;/span&gt;&lt;br style=&quot;color: rgb(26 , 26 , 26) ; font-size: 13px&quot;&gt;&lt;span style=&quot;color: rgb(26 , 26 , 26) ; font-size: 13px&quot;&gt;Catalog (VPC Product)&lt;/span&gt;" style="text;html=1;resizable=0;autosize=1;align=center;verticalAlign=middle;points=[];fillColor=none;strokeColor=none;rounded=0;fontSize=12;fontColor=#4D4D4D;" vertex="1" parent="1">
          <mxGeometry x="870" y="530" width="150" height="30" as="geometry" />
        </mxCell>
        <mxCell id="3dYIIpt0eVYWInigi38m-84" value="&lt;font color=&quot;#1a1a1a&quot;&gt;SC Launch &lt;br&gt;Constrains Role&lt;/font&gt;" style="text;html=1;resizable=0;autosize=1;align=center;verticalAlign=middle;points=[];fillColor=none;strokeColor=none;rounded=0;fontSize=12;fontColor=#4D4D4D;" vertex="1" parent="1">
          <mxGeometry x="680" y="580" width="100" height="30" as="geometry" />
        </mxCell>
        <mxCell id="3dYIIpt0eVYWInigi38m-85" value="&lt;span style=&quot;color: rgb(26 , 26 , 26) ; font-size: 13px&quot;&gt;AWS Service&amp;nbsp;&lt;/span&gt;&lt;br style=&quot;color: rgb(26 , 26 , 26) ; font-size: 13px&quot;&gt;&lt;span style=&quot;color: rgb(26 , 26 , 26) ; font-size: 13px&quot;&gt;Catalog (VPC Product)&lt;/span&gt;" style="text;html=1;resizable=0;autosize=1;align=center;verticalAlign=middle;points=[];fillColor=none;strokeColor=none;rounded=0;fontSize=12;fontColor=#4D4D4D;" vertex="1" parent="1">
          <mxGeometry x="890" y="115" width="150" height="30" as="geometry" />
        </mxCell>
        <mxCell id="3dYIIpt0eVYWInigi38m-86" value="End Users&lt;br&gt;" style="sketch=0;outlineConnect=0;fontColor=#232F3E;gradientColor=none;strokeColor=#232F3E;fillColor=#ffffff;dashed=0;verticalLabelPosition=bottom;verticalAlign=top;align=center;html=1;fontSize=12;fontStyle=0;aspect=fixed;shape=mxgraph.aws4.resourceIcon;resIcon=mxgraph.aws4.users;" vertex="1" parent="1">
          <mxGeometry x="1050" y="145" width="50" height="50" as="geometry" />
        </mxCell>
        <mxCell id="3dYIIpt0eVYWInigi38m-87" value="" style="sketch=0;outlineConnect=0;fontColor=#232F3E;gradientColor=none;strokeColor=#232F3E;fillColor=#ffffff;dashed=0;verticalLabelPosition=bottom;verticalAlign=top;align=center;html=1;fontSize=12;fontStyle=0;aspect=fixed;shape=mxgraph.aws4.resourceIcon;resIcon=mxgraph.aws4.role;" vertex="1" parent="1">
          <mxGeometry x="825.5" y="151" width="59" height="59" as="geometry" />
        </mxCell>
        <mxCell id="3dYIIpt0eVYWInigi38m-88" value="&lt;font color=&quot;#1a1a1a&quot;&gt;SC Launch &lt;br&gt;Constrains Role&lt;/font&gt;" style="text;html=1;resizable=0;autosize=1;align=center;verticalAlign=middle;points=[];fillColor=none;strokeColor=none;rounded=0;fontSize=12;fontColor=#4D4D4D;" vertex="1" parent="1">
          <mxGeometry x="725.5" y="170" width="100" height="30" as="geometry" />
        </mxCell>
        <mxCell id="3dYIIpt0eVYWInigi38m-89" value="" style="sketch=0;outlineConnect=0;fontColor=#232F3E;gradientColor=none;strokeColor=#232F3E;fillColor=#ffffff;dashed=0;verticalLabelPosition=bottom;verticalAlign=top;align=center;html=1;fontSize=12;fontStyle=0;aspect=fixed;shape=mxgraph.aws4.resourceIcon;resIcon=mxgraph.aws4.users;" vertex="1" parent="1">
          <mxGeometry x="270" y="95" width="45" height="45" as="geometry" />
        </mxCell>
        <mxCell id="3dYIIpt0eVYWInigi38m-90" value="Cloud &lt;br&gt;Administrators" style="text;html=1;resizable=0;autosize=1;align=center;verticalAlign=middle;points=[];fillColor=none;strokeColor=none;rounded=0;fontSize=12;fontColor=#1A1A1A;" vertex="1" parent="1">
          <mxGeometry x="180" y="95" width="90" height="30" as="geometry" />
        </mxCell>
        <mxCell id="3dYIIpt0eVYWInigi38m-91" style="edgeStyle=orthogonalEdgeStyle;rounded=0;orthogonalLoop=1;jettySize=auto;html=1;exitX=0.75;exitY=1;exitDx=0;exitDy=0;exitPerimeter=0;fontSize=12;fontColor=#1A1A1A;endSize=4;" edge="1" parent="1" source="3dYIIpt0eVYWInigi38m-16" target="3dYIIpt0eVYWInigi38m-16">
          <mxGeometry relative="1" as="geometry" />
        </mxCell>
        <mxCell id="3dYIIpt0eVYWInigi38m-101" value="" style="endArrow=none;html=1;rounded=0;fontSize=12;fontColor=#1A1A1A;shape=link;entryX=0;entryY=0.5;entryDx=0;entryDy=0;entryPerimeter=0;" edge="1" parent="1" source="3dYIIpt0eVYWInigi38m-64" target="3dYIIpt0eVYWInigi38m-65">
          <mxGeometry relative="1" as="geometry">
            <mxPoint x="270" y="520" as="sourcePoint" />
            <mxPoint x="430" y="520" as="targetPoint" />
          </mxGeometry>
        </mxCell>
        <mxCell id="3dYIIpt0eVYWInigi38m-103" value="" style="endArrow=none;html=1;rounded=0;fontSize=12;fontColor=#1A1A1A;shape=link;entryX=0;entryY=0.75;entryDx=0;entryDy=0;entryPerimeter=0;exitX=1;exitY=0;exitDx=0;exitDy=0;" edge="1" parent="1" source="3dYIIpt0eVYWInigi38m-34" target="3dYIIpt0eVYWInigi38m-65">
          <mxGeometry relative="1" as="geometry">
            <mxPoint x="300" y="550" as="sourcePoint" />
            <mxPoint x="460" y="540" as="targetPoint" />
          </mxGeometry>
        </mxCell>
        <mxCell id="3dYIIpt0eVYWInigi38m-104" value="" style="endArrow=none;html=1;rounded=0;fontSize=12;fontColor=#1A1A1A;shape=link;" edge="1" parent="1" source="3dYIIpt0eVYWInigi38m-33" target="3dYIIpt0eVYWInigi38m-65">
          <mxGeometry relative="1" as="geometry">
            <mxPoint x="410" y="640" as="sourcePoint" />
            <mxPoint x="460" y="530" as="targetPoint" />
          </mxGeometry>
        </mxCell>
        <mxCell id="3dYIIpt0eVYWInigi38m-105" value="" style="endArrow=none;html=1;rounded=0;fontSize=12;fontColor=#1A1A1A;shape=link;entryX=0;entryY=1;entryDx=0;entryDy=0;" edge="1" parent="1" target="3dYIIpt0eVYWInigi38m-30">
          <mxGeometry relative="1" as="geometry">
            <mxPoint x="470" y="480" as="sourcePoint" />
            <mxPoint x="630" y="480" as="targetPoint" />
          </mxGeometry>
        </mxCell>
        <mxCell id="3dYIIpt0eVYWInigi38m-107" value="" style="endArrow=none;html=1;rounded=0;fontSize=12;fontColor=#1A1A1A;shape=link;entryX=0;entryY=0.5;entryDx=0;entryDy=0;" edge="1" parent="1" target="3dYIIpt0eVYWInigi38m-39">
          <mxGeometry relative="1" as="geometry">
            <mxPoint x="470" y="510" as="sourcePoint" />
            <mxPoint x="630" y="510" as="targetPoint" />
          </mxGeometry>
        </mxCell>
        <mxCell id="3dYIIpt0eVYWInigi38m-110" value="" style="endArrow=none;html=1;rounded=0;fontSize=12;fontColor=#1A1A1A;shape=link;exitX=0.75;exitY=1;exitDx=0;exitDy=0;exitPerimeter=0;entryX=0.479;entryY=0;entryDx=0;entryDy=0;entryPerimeter=0;" edge="1" parent="1" source="3dYIIpt0eVYWInigi38m-65" target="3dYIIpt0eVYWInigi38m-68">
          <mxGeometry relative="1" as="geometry">
            <mxPoint x="460" y="520" as="sourcePoint" />
            <mxPoint x="458" y="990" as="targetPoint" />
          </mxGeometry>
        </mxCell>
        <mxCell id="3dYIIpt0eVYWInigi38m-111" value="AWS &lt;br&gt;S2S &lt;br&gt;VPN" style="text;html=1;resizable=0;autosize=1;align=center;verticalAlign=middle;points=[];fillColor=none;strokeColor=none;rounded=0;fontSize=12;fontColor=#1A1A1A;" vertex="1" parent="1">
          <mxGeometry x="410" y="985" width="40" height="50" as="geometry" />
        </mxCell>
        <mxCell id="3dYIIpt0eVYWInigi38m-112" value="AWS&amp;nbsp;&lt;br&gt;Direct&lt;br&gt;Connect" style="text;html=1;resizable=0;autosize=1;align=center;verticalAlign=middle;points=[];fillColor=none;strokeColor=none;rounded=0;fontSize=12;fontColor=#1A1A1A;" vertex="1" parent="1">
          <mxGeometry x="470" y="985" width="60" height="50" as="geometry" />
        </mxCell>
        <mxCell id="3dYIIpt0eVYWInigi38m-114" value="" style="edgeStyle=orthogonalEdgeStyle;html=1;endArrow=block;elbow=vertical;startArrow=block;startFill=1;endFill=1;strokeColor=#1A1A1A;rounded=0;fontSize=13;fontColor=#1A1A1A;" edge="1" parent="1">
          <mxGeometry width="100" relative="1" as="geometry">
            <mxPoint x="-40" y="520" as="sourcePoint" />
            <mxPoint x="20" y="520" as="targetPoint" />
          </mxGeometry>
        </mxCell>
        <mxCell id="3dYIIpt0eVYWInigi38m-115" value="" style="edgeStyle=orthogonalEdgeStyle;html=1;endArrow=block;elbow=vertical;startArrow=block;startFill=1;endFill=1;strokeColor=#1A1A1A;rounded=0;fontSize=13;fontColor=#1A1A1A;" edge="1" parent="1">
          <mxGeometry width="100" relative="1" as="geometry">
            <mxPoint x="95" y="517" as="sourcePoint" />
            <mxPoint x="155" y="517" as="targetPoint" />
          </mxGeometry>
        </mxCell>
        <mxCell id="3dYIIpt0eVYWInigi38m-120" value="" style="edgeStyle=orthogonalEdgeStyle;html=1;endArrow=block;elbow=vertical;startArrow=none;endFill=1;strokeColor=#1A1A1A;rounded=0;fontSize=12;fontColor=#1A1A1A;" edge="1" parent="1">
          <mxGeometry width="100" relative="1" as="geometry">
            <mxPoint x="990" y="210" as="sourcePoint" />
            <mxPoint x="980" y="240" as="targetPoint" />
          </mxGeometry>
        </mxCell>
        <mxCell id="3dYIIpt0eVYWInigi38m-122" value="" style="edgeStyle=orthogonalEdgeStyle;html=1;endArrow=block;elbow=vertical;startArrow=none;endFill=1;strokeColor=#1A1A1A;rounded=0;fontSize=12;fontColor=#1A1A1A;" edge="1" parent="1">
          <mxGeometry width="100" relative="1" as="geometry">
            <mxPoint x="980" y="620" as="sourcePoint" />
            <mxPoint x="970" y="650" as="targetPoint" />
          </mxGeometry>
        </mxCell>
        <mxCell id="3dYIIpt0eVYWInigi38m-123" value="" style="edgeStyle=orthogonalEdgeStyle;html=1;endArrow=none;elbow=vertical;startArrow=openThin;startFill=0;strokeColor=#1A1A1A;rounded=0;fontSize=12;fontColor=#1A1A1A;" edge="1" parent="1">
          <mxGeometry width="100" relative="1" as="geometry">
            <mxPoint x="1000" y="590" as="sourcePoint" />
            <mxPoint x="1050" y="590" as="targetPoint" />
          </mxGeometry>
        </mxCell>
        <mxCell id="3dYIIpt0eVYWInigi38m-124" value="" style="edgeStyle=orthogonalEdgeStyle;html=1;endArrow=none;elbow=vertical;startArrow=openThin;startFill=0;strokeColor=#1A1A1A;rounded=0;fontSize=12;fontColor=#1A1A1A;" edge="1" parent="1">
          <mxGeometry width="100" relative="1" as="geometry">
            <mxPoint x="1010" y="184.5" as="sourcePoint" />
            <mxPoint x="1060" y="184.5" as="targetPoint" />
          </mxGeometry>
        </mxCell>
        <mxCell id="3dYIIpt0eVYWInigi38m-125" value="" style="sketch=0;points=[[0,0,0],[0.25,0,0],[0.5,0,0],[0.75,0,0],[1,0,0],[0,1,0],[0.25,1,0],[0.5,1,0],[0.75,1,0],[1,1,0],[0,0.25,0],[0,0.5,0],[0,0.75,0],[1,0.25,0],[1,0.5,0],[1,0.75,0]];outlineConnect=0;fontColor=#232F3E;gradientColor=#F54749;gradientDirection=north;fillColor=#C7131F;strokeColor=#ffffff;dashed=0;verticalLabelPosition=bottom;verticalAlign=top;align=center;html=1;fontSize=12;fontStyle=0;aspect=fixed;shape=mxgraph.aws4.resourceIcon;resIcon=mxgraph.aws4.single_sign_on;" vertex="1" parent="1">
          <mxGeometry x="-370" y="65" width="90" height="90" as="geometry" />
        </mxCell>
        <mxCell id="3dYIIpt0eVYWInigi38m-126" value="" style="sketch=0;pointerEvents=1;shadow=0;dashed=0;html=1;strokeColor=none;fillColor=#505050;labelPosition=center;verticalLabelPosition=bottom;verticalAlign=top;outlineConnect=0;align=center;shape=mxgraph.office.servers.active_directory_federation_services_server_orange;fontSize=12;fontColor=#1A1A1A;" vertex="1" parent="1">
          <mxGeometry x="-610" y="47" width="100" height="113" as="geometry" />
        </mxCell>
        <mxCell id="3dYIIpt0eVYWInigi38m-127" value="Active Directory&lt;br&gt;Federation Service" style="text;html=1;resizable=0;autosize=1;align=center;verticalAlign=middle;points=[];fillColor=none;strokeColor=none;rounded=0;fontSize=12;fontColor=#1A1A1A;" vertex="1" parent="1">
          <mxGeometry x="-630" y="170" width="120" height="30" as="geometry" />
        </mxCell>
        <mxCell id="3dYIIpt0eVYWInigi38m-128" value="Authenticate&amp;nbsp;&lt;br&gt;User" style="text;html=1;resizable=0;autosize=1;align=center;verticalAlign=middle;points=[];fillColor=none;strokeColor=none;rounded=0;fontSize=12;fontColor=#1A1A1A;" vertex="1" parent="1">
          <mxGeometry x="-480" y="80" width="90" height="30" as="geometry" />
        </mxCell>
        <mxCell id="3dYIIpt0eVYWInigi38m-130" value="Assume Role &lt;br&gt;with SAML" style="text;html=1;resizable=0;autosize=1;align=center;verticalAlign=middle;points=[];fillColor=none;strokeColor=none;rounded=0;fontSize=12;fontColor=#1A1A1A;" vertex="1" parent="1">
          <mxGeometry x="-280" y="102.5" width="90" height="30" as="geometry" />
        </mxCell>
        <mxCell id="3dYIIpt0eVYWInigi38m-132" value="" style="edgeStyle=orthogonalEdgeStyle;html=1;endArrow=block;elbow=vertical;startArrow=none;endFill=1;strokeColor=#545B64;rounded=0;fontSize=12;fontColor=#1A1A1A;" edge="1" parent="1">
          <mxGeometry width="100" relative="1" as="geometry">
            <mxPoint x="-200" y="124" as="sourcePoint" />
            <mxPoint x="-150" y="124" as="targetPoint" />
          </mxGeometry>
        </mxCell>
        <mxCell id="3dYIIpt0eVYWInigi38m-133" value="" style="edgeStyle=orthogonalEdgeStyle;html=1;endArrow=block;elbow=vertical;startArrow=block;startFill=1;endFill=1;strokeColor=#545B64;rounded=0;fontSize=12;fontColor=#1A1A1A;" edge="1" parent="1">
          <mxGeometry width="100" relative="1" as="geometry">
            <mxPoint x="-510" y="117" as="sourcePoint" />
            <mxPoint x="-410" y="117" as="targetPoint" />
          </mxGeometry>
        </mxCell>
      </root>
    </mxGraphModel>
  </diagram>
</mxfile>
